<?xml version="1.0" encoding="iso-8859-1"?>
<!-- Generator: Adobe Illustrator 19.0.0, SVG Export Plug-In . SVG Version: 6.00 Build 0)  -->
<svg version="1.1" id="Capa_1" xmlns="http://www.w3.org/2000/svg" xmlns:xlink="http://www.w3.org/1999/xlink" x="0px" y="0px"
	 viewBox="0 0 480.043 480.043" style="enable-background:new 0 0 480.043 480.043;" xml:space="preserve">
<circle style="fill:#EFF2FA;" cx="304.021" cy="176.043" r="168"/>
<path style="fill:#D9DDE1;" d="M447.781,89.443c-5.21,101.487-91.705,179.534-193.192,174.324
	c-41.992-2.156-81.979-18.629-113.304-46.676c22.501,89.946,113.657,144.621,203.603,122.12s144.621-113.657,122.12-203.603
	C462.94,119.347,456.459,103.786,447.781,89.443z"/>
<g>
	<path style="fill:#6B778A;" d="M304.021,120.043l-56,40l24,64h64l24-64L304.021,120.043z"/>
	<path style="fill:#6B778A;" d="M251.285,17.211l54.336,38.832l54.4-38.832C324.807,4.987,286.5,4.987,251.285,17.211z"/>
	<path style="fill:#6B778A;" d="M169.789,75.331c-21.918,29-33.774,64.361-33.768,100.712c0,0.888,0.12,1.744,0.136,2.632
		l53.736-39.712L169.789,75.331z"/>
	<path style="fill:#6B778A;" d="M233.485,273.123l-66.816-0.536c21.421,30.519,52.376,53.055,88,64.064L233.485,273.123z"/>
</g>
<path style="fill:#505968;" d="M353.349,336.651c35.624-11.009,66.579-33.545,88-64.064l-66.816,0.536L353.349,336.651z"/>
<path style="fill:#1F9342;" d="M40.021,296.043h368v176h-368V296.043z"/>
<path style="fill:#2CB357;" d="M8.021,264.043h368v176h-368V264.043z"/>
<path style="fill:#1F9342;" d="M312.021,296.043h-240c0,17.673-14.327,32-32,32v48c17.673,0,32,14.327,32,32h240
	c0-17.673,14.327-32,32-32v-48C326.348,328.043,312.021,313.716,312.021,296.043z"/>
<ellipse style="fill:#FFD33F;" cx="192.021" cy="352.043" rx="64" ry="72"/>
<path style="fill:#6B778A;" d="M418.149,138.963l53.736,39.712c0-0.888,0.136-1.744,0.136-2.632
	c0.006-36.351-11.85-71.712-33.768-100.712L418.149,138.963z"/>
<path style="fill:#505968;" d="M447.773,89.643c-1.067,20.991-5.738,41.641-13.808,61.048l37.92,28c0-0.888,0.136-1.744,0.136-2.632
	C472.006,145.577,463.619,115.684,447.773,89.643z"/>
<path d="M72.021,288.043c-4.418,0-8,3.582-8,8c0,13.255-10.745,24-24,24c-4.418,0-8,3.582-8,8v48c0,4.418,3.582,8,8,8
	c13.255,0,24,10.745,24,24c0,4.418,3.582,8,8,8h76.984c24.71,21.333,61.322,21.333,86.032,0h76.984c4.418,0,8-3.582,8-8
	c0-13.255,10.745-24,24-24c4.418,0,8-3.582,8-8v-48c0-4.418-3.582-8-8-8c-13.255,0-24-10.745-24-24c0-4.418-3.582-8-8-8h-76.984
	c-24.71-21.333-61.322-21.333-86.032,0H72.021z M48.021,368.843v-33.6c15.701-3.23,27.97-15.499,31.2-31.2h55.344
	c-19.381,29.065-19.381,66.935,0,96H79.221C75.991,384.342,63.722,372.073,48.021,368.843L48.021,368.843z M336.021,335.243v33.6
	c-15.701,3.23-27.97,15.499-31.2,31.2h-55.336c19.381-29.065,19.381-66.935,0-96h55.336
	C308.051,319.744,320.321,332.013,336.021,335.243L336.021,335.243z M192.021,288.043c30.88,0,56,28.712,56,64s-25.12,64-56,64
	s-56-28.712-56-64S161.141,288.043,192.021,288.043z"/>
<path d="M192.021,376.043c-4.418,0-8-3.582-8-8h-16c0.042,10.134,6.445,19.15,16,22.528v9.472h16v-9.472
	c12.473-4.393,19.023-18.066,14.629-30.539c-3.38-9.596-12.455-16.009-22.629-15.989c-4.418,0-8-3.582-8-8s3.582-8,8-8s8,3.582,8,8
	h16c-0.042-10.134-6.445-19.15-16-22.528v-9.472h-16v9.472c-12.473,4.393-19.023,18.066-14.629,30.539
	c3.38,9.596,12.455,16.009,22.629,15.989c4.418,0,8,3.582,8,8S196.44,376.043,192.021,376.043z"/>
<path d="M479.301,160.547c-0.36-4.12-0.8-8.2-1.488-12.24c-0.096-0.608-0.224-1.216-0.32-1.824
	c-0.656-3.84-1.432-7.635-2.328-11.384c-0.136-0.552-0.248-1.104-0.384-1.648c-1.048-4.184-2.256-8.304-3.592-12.368
	c-0.144-0.432-0.296-0.856-0.44-1.288C439.713,27.714,339.906-21.773,247.825,9.264c-52.086,17.556-92.975,58.445-110.531,110.531
	c-0.144,0.432-0.296,0.856-0.44,1.288c-1.336,4.064-2.544,8.184-3.592,12.368c-0.136,0.544-0.248,1.096-0.384,1.648
	c-0.896,3.733-1.672,7.528-2.328,11.384c-0.096,0.608-0.224,1.216-0.32,1.824c-0.648,4-1.128,8.12-1.488,12.24
	c-0.08,0.928-0.144,1.856-0.208,2.784c-0.304,4.208-0.512,8.432-0.512,12.712c0,0.384,0,0.8,0.048,1.344
	c0.192,27.357,6.769,54.29,19.208,78.656H8.021c-4.418,0-8,3.582-8,8v176c0,4.418,3.582,8,8,8h24v24c0,4.418,3.582,8,8,8h368
	c4.418,0,8-3.582,8-8V311.731c40.619-33.33,64.115-83.145,64-135.688c0-4.28-0.208-8.504-0.512-12.712
	C479.445,162.443,479.381,161.475,479.301,160.547L479.301,160.547z M437.277,264.619l-53.256,0.424v-1c0-4.418-3.582-8-8-8h-4.712
	l-26.216-33.4l21.128-56.336l50.616-18.4l47,34.72C462.702,211.882,453.511,240.255,437.277,264.619L437.277,264.619z
	 M384.021,281.043l40.856-0.32c-3.291,3.792-6.757,7.424-10.4,10.896c-1.424-2.19-3.844-3.531-6.456-3.576h-24V281.043z
	 M268.661,20.115c2.08-0.48,4.16-0.896,6.248-1.288c3.792-0.704,7.6-1.328,11.472-1.76c1.208-0.136,2.4-0.208,3.624-0.312
	c4.392-0.384,8.8-0.656,13.288-0.672h1.456c4.48,0,8.896,0.288,13.288,0.672c1.208,0.104,2.4,0.176,3.624,0.312
	c3.872,0.432,7.68,1.056,11.472,1.76c2.088,0.392,4.168,0.8,6.248,1.288c0.296,0.064,0.576,0.152,0.864,0.224l-36.224,25.872
	l-36.224-25.872C268.085,20.267,268.365,20.179,268.661,20.115L268.661,20.115z M304.021,129.875l46.352,33.104l-19.896,53.064
	h-52.912l-19.896-53.064L304.021,129.875z M275.909,232.043h56.224l18.84,24h-93.904L275.909,232.043z M442.229,95.803
	c1.248,2.128,2.472,4.272,3.616,6.448c1.6,3.035,3.088,6.12,4.464,9.256c0.672,1.496,1.304,3.008,1.928,4.52
	c1.536,3.776,2.976,7.6,4.224,11.52c0.304,0.936,0.552,1.896,0.8,2.848c1.232,4.144,2.344,8.336,3.248,12.608
	c0.08,0.368,0.184,0.728,0.256,1.096c0.944,4.64,1.6,9.368,2.168,14.144c0.088,0.8,0.192,1.6,0.264,2.4
	c0.056,0.576,0,1.176,0.096,1.76l-35.832-26.472l13.376-42.336C441.325,94.323,441.789,95.051,442.229,95.803z M429.365,76.907
	l-17.656,55.872l-50.464,18.312l-49.224-35.16V60.155l47.552-33.968C387.03,36.407,411.166,53.948,429.365,76.907L429.365,76.907z
	 M248.469,26.187l47.552,33.968v55.776l-49.224,35.16l-50.464-18.312l-17.656-55.872C196.876,53.948,221.012,36.407,248.469,26.187z
	 M144.821,160.635c0.072-0.8,0.176-1.6,0.264-2.4c0.536-4.8,1.224-9.504,2.168-14.136c0.08-0.376,0.176-0.744,0.256-1.12
	c0.904-4.264,2.016-8.456,3.248-12.592c0.288-0.952,0.536-1.912,0.84-2.848c1.248-3.92,2.688-7.744,4.224-11.52
	c0.624-1.512,1.256-3.024,1.928-4.52c1.392-3.147,2.88-6.232,4.464-9.256c1.144-2.176,2.4-4.32,3.616-6.448
	c0.44-0.752,0.904-1.48,1.352-2.216l13.376,42.336l-35.832,26.472C144.765,161.811,144.749,161.211,144.821,160.635L144.821,160.635
	z M144.261,182.635l46.96-34.688l50.616,18.4l21.128,56.336l-26.232,33.36h-71.2c-12.942-22.382-20.247-47.575-21.288-73.408
	L144.261,182.635z M16.021,272.043h352v160h-352L16.021,272.043z M400.021,464.043h-352v-16h328c4.418,0,8-3.582,8-8v-136h16
	V464.043z"/>
<g>
</g>
<g>
</g>
<g>
</g>
<g>
</g>
<g>
</g>
<g>
</g>
<g>
</g>
<g>
</g>
<g>
</g>
<g>
</g>
<g>
</g>
<g>
</g>
<g>
</g>
<g>
</g>
<g>
</g>
</svg>
