<svg height="512" viewBox="0 0 50 60" width="512" xmlns="http://www.w3.org/2000/svg"><g id="Page-1" fill="none" fill-rule="evenodd"><g id="035---Live-Football" transform="translate(0 -1)"><path id="Path" d="m45 22c0 .23 0 .45-.02.68-.2063561 6.1458341-3.229707 11.8547348-8.1974559 15.4790044s-11.3270708 4.7605893-17.2425441 3.0809956c-2.8300712-.7990099-5.4489888-2.2126108-7.67-4.14v-.01c-1.3734879-1.1916064-2.57494938-2.5680706-3.57-4.09-.77814505-1.1845386-1.42844964-2.4482748-1.94-3.77l-.01-.01c-.81127004-2.0887244-1.26102854-4.3003189-1.33-6.54-.02-.23-.02-.45-.02-.68 0-11.045695 8.954305-20 20-20s20 8.954305 20 20z" fill="#f5f5f5"/><g fill="#607d8b"><path id="Path" d="m11.87 37.1v-.01c-1.3734879-1.1916064-2.57494938-2.5680706-3.57-4.09h8.47l2.77 8.24c-2.8300712-.7990099-5.4489888-2.2126108-7.67-4.14z"/><path id="Path" d="m31.83 3.2-6.83 4.8-6.83-4.8c4.4127763-1.60000354 9.2472237-1.60000354 13.66 0z"/><path id="Path" d="m11.69 17.67-6.67 5.01c-.02-.23-.02-.45-.02-.68-.0053105-4.4546415 1.48417567-8.7822503 4.23-12.29z"/><path id="Path" d="m45 22c0 .23 0 .45-.02.68l-6.67-5.01 2.46-7.96c2.7458243 3.5077497 4.2353105 7.8353585 4.23 12.29z"/><path id="Path" d="m41.7 33c-2.6304668 4.0121812-6.6222908 6.9385718-11.24 8.24l2.77-8.24z"/></g><path id="Path" d="m40.77 9.71c-3.783127-4.86845905-9.6044568-7.71452457-15.77-7.71-.506 0-1 .029-1.5.066 5.6263627.40587596 10.8147101 3.18511404 14.27 7.644 2.7458243 3.5077497 4.2353105 7.8353585 4.23 12.29 0 .23 0 .45-.02.68-.2901073 8.6855105-6.1595948 16.1881061-14.52 18.56-1.2925085.3684886-2.6194911.6030562-3.96.7.5.036 1 .058 1.5.058 10.7795203.0017432 19.6186694-8.5445372 19.98-19.318.02-.23.02-.45.02-.68.0053105-4.4546415-1.4841757-8.7822503-4.23-12.29z" fill="#cfd8dc"/><path id="Path" d="m32.61 19.35-2.91 8.65h-9.4l-2.91-8.65 7.61-5.35z" fill="#607d8b"/><path id="Path" d="m45 22c0 .23 0 .45-.02.68l-3.04-2.28v-.01c-.2129737-2.6240622-.9437077-5.1799318-2.15-7.52l.98-3.16c2.7458243 3.5077497 4.2353105 7.8353585 4.23 12.29z" fill="#37474f"/><path id="Path" d="m41.7 33c-2.6304668 4.0121812-6.6222908 6.9385718-11.24 8.24l.44-1.32c3.1693128-1.571697 5.8619073-3.9605116 7.8-6.92z" fill="#37474f"/><rect id="Rectangle" fill="#f44335" height="22" rx="3" width="48" x="1" y="38"/><path id="Path" d="m46 38h-3c1.6568542 0 3 1.3431458 3 3v16c0 1.6568542-1.3431458 3-3 3h3c1.6568542 0 3-1.3431458 3-3v-16c0-1.6568542-1.3431458-3-3-3z" fill="#c81e1e"/><path id="Shape" d="m50 57v-16c0-2.209139-1.790861-4-4-4h-6.331c3.8688393-3.7476195 6.1305782-8.8515911 6.308-14.235.023-.259.023-.506.023-.765.0006321-6.8495637-3.3392718-13.26901005-8.9486878-17.19978292-5.609416-3.93077287-12.7833544-4.87885387-19.2213122-2.54021708-8.29650138 3.02471675-13.82052278 10.9093286-13.83 19.74 0 .259 0 .508.021.712.16264021 5.4026092 2.4264516 10.5286531 6.31 14.288h-6.331c-2.209139 0-4 1.790861-4 4v16c0 2.209139 1.790861 4 4 4h42c2.209139 0 4-1.790861 4-4zm-17.059-20 1.008-3h5.767c-.9068214 1.1133514-1.937459 2.1198334-3.072 3zm-13.772 0-1.29-3.838 2.937-4.162h8.368l2.937 4.162-1.29 3.838zm-10.31-5c-1.65632968-2.6694765-2.62076386-5.7098845-2.806-8.846l5.836-4.383 4.718 1.388 2.583 7.677-2.938 4.164zm.022-20.033 1.646 5.326-4.472 3.359c.2094381-3.0841253 1.18041562-6.0681804 2.826-8.685zm16.119-8.967c1.5406835.00209971 3.0753557.19217071 4.57.566l-4.57 3.211-4.571-3.212c1.4951052-.37306397 3.030055-.56279196 4.571-.565zm0 12.222 6.424 4.517-2.443 7.261h-7.962l-2.443-7.261zm8.393 4.937 4.718-1.388 5.837 4.384c-.1830632 3.1363488-1.1480382 6.1770342-2.807 8.845h-7.393l-2.938-4.164zm7.726-8.191c1.6451998 2.6166328 2.6161519 5.6002663 2.826 8.684l-4.472-3.359zm-1.465-2.035-2.141 6.929-4.726 1.391-6.787-4.772v-4.961l5.962-4.19c3.0019563 1.17732611 5.6507612 3.10676626 7.692 5.603zm-21.616-5.603 5.962 4.19v4.961l-6.787 4.772-4.726-1.391-2.141-6.93c2.041671-2.49553938 4.6903719-4.42455945 7.692-5.602zm-7.754 29.67h5.767l1.008 3h-3.7c-1.1355917-.8799907-2.1672425-1.8864793-3.075-3zm-8.284 23v-16c0-1.1045695.8954305-2 2-2h42c1.1045695 0 2 .8954305 2 2v16c0 1.1045695-.8954305 2-2 2h-42c-1.1045695 0-2-.8954305-2-2z" fill="#000" fill-rule="nonzero"/><path id="Path" d="m18 43c-.5522847 0-1 .4477153-1 1v10c0 .5522847.4477153 1 1 1s1-.4477153 1-1v-10c0-.5522847-.4477153-1-1-1z" fill="#000"/><path id="Path" d="m31.372 43.071c-.2462521-.0985451-.5215667-.0952223-.7653686.0092375-.243802.1044597-.4361169.3014982-.5346314.5477625l-3.072 7.68-3.071-7.68c-.2054499-.5130725-.7879275-.7624499-1.301-.557s-.7624499.7879275-.557 1.301l4 10c.1515178.3803506.5195806.6299203.929.6299203s.7774822-.2495697.929-.6299203l4-10c.0988577-.2463696.0956981-.5219366-.0087825-.7659747-.1044806-.2440382-.3017073-.4365188-.5482175-.5350253z" fill="#000"/><path id="Path" d="m42 45c.5522847 0 1-.4477153 1-1s-.4477153-1-1-1h-6c-.5522847 0-1 .4477153-1 1v10c0 .5522847.4477153 1 1 1h6c.5522847 0 1-.4477153 1-1s-.4477153-1-1-1h-5v-3h5c.5522847 0 1-.4477153 1-1s-.4477153-1-1-1h-5v-3z" fill="#000"/><path id="Path" d="m14 53h-5v-9c0-.5522847-.44771525-1-1-1s-1 .4477153-1 1v10c0 .5522847.44771525 1 1 1h6c.5522847 0 1-.4477153 1-1s-.4477153-1-1-1z" fill="#000"/></g></g></svg>